<svg xmlns="http://www.w3.org/2000/svg" viewBox="0 0 98.24 87.45"><defs><style>.a{fill:#838c94;}</style></defs><title>blades</title><path class="a" d="M96.66,80.3c-.73-.57-1.52-1-2.29-1.56C83.89,71.82,73.4,64.93,63,58a14.58,14.58,0,0,0-7.71-2.67,6.38,6.38,0,0,1-5.91-6Q48.68,26.14,48,3c0-.64,0-1.29-.08-1.93,0-.47-.13-1-.66-1.08-.72,0-.78.63-.85,1.17s-.07.92-.11,1.38c-.68,9.3-1.46,18.59-2,27.89-.4,6.68-1.6,13.32.63,20a6.3,6.3,0,0,1-4,8.11,9.09,9.09,0,0,0-1.92,1.07C26.6,67.74,14.27,76,2.19,84.69c-.6.43-1.2.86-1.77,1.32-.28.23-.55.54-.35,1a.81.81,0,0,0,1.16.37,15.7,15.7,0,0,0,1.47-.76q13.07-7,26.13-14c9.94-5.29,14-9.43,15.5-11.33.54-.69,2.27-3.05,4.62-3.05,4.27,0,5.6,2.39,6.95,3,.17.07,27.35,14.18,39.72,20.6.77.4,1.85,1.35,2.46.4S97.33,80.82,96.66,80.3Z"/></svg>