<svg xmlns="http://www.w3.org/2000/svg" xmlns:xlink="http://www.w3.org/1999/xlink" viewBox="0 0 94 19"><defs><style>.a{fill:none;}.b{clip-path:url(#a);}.c{fill:url(#b);}.d{clip-path:url(#c);}.e{fill:#f37321;}.f{fill:#fff;}</style><clipPath id="a"><path class="a" d="M-623.68,241l0,1.17h36.32l-27.4-.1,0-1.07Zm-3.5-75,.59,12.57,0-1V166.1c1,.66,4,2.68,9.17,5.57a15.76,15.76,0,0,1,7.61-9.46c-5.07-2.08-10.41-4.26-16.13-6.54l-.12,0-.16-.06-.13-.05-.18-.08-.09,0-.22-.09-.07,0-.24-.09ZM138.1,143.12C67,145.19-17.14,165.63-72.93,177.2l-1,.2-.09,0-.94.19-.11,0-.94.19-.09,0-1,.2h0l-3,.62h0l-1,.21h0l-5.16,1h0l-1,.2h0q-8.28,1.62-16.58,3.17h0l-5.16.95-.07,0-1,.18h0l-1,.18h0l-2,.37h0l-1,.18h-.06l-1,.18-.1,0-1,.17h-.08l-1,.17-.08,0-1,.16h0l-1,.17-.12,0-.92.16-.15,0-.9.16-.16,0-.91.16-.13,0-.92.16-.09,0-.87.15-.17,0-.85.14-.24,0-.81.13-.27,0-.79.13-.29.05-.79.14-.23,0-.71.12-.31.05-.72.12-.29.05-.76.13-.35.06-.72.12-.36.06-.69.11-.38.06-.56.1-.5.08-.53.09-.53.08-.52.09-.43.07-.65.11-.45.07-.52.08-.58.1-.39.06-.72.12-.31.05-.84.13-.24,0-.93.15-.17,0-1.67.26-.09,0-1.06.17h-.06l-1.07.16-.07,0c-64.14,10.08-128.48,16.11-188.55,17.44,23.29,2.08,47.9,3.36,74.1,3.57,51.55-4,103.63-10.23,149.45-18.15,112-19.37,200.56-40.81,260.44-40.81,41.13,0,68.71,10.12,81.05,38a54.33,54.33,0,0,1,4.48,16.67v10.19A52.66,52.66,0,0,1,225.52,241H201.89q-1,.63-2.07,1.17h68.26V202.91c-10.59-42.75-53.52-58-107.65-59.79Z"/></clipPath><linearGradient id="b" x1="-1073.7" y1="1419.57" x2="-1072.7" y2="1419.57" gradientTransform="matrix(668.02, 0, 0, 668.02, 716721.69, -948105.64)" gradientUnits="userSpaceOnUse"><stop offset="0" stop-color="#fff6f4"/><stop offset="0.63" stop-color="#f8a672"/><stop offset="1" stop-color="#f47522"/></linearGradient><clipPath id="c"><rect class="a" width="94" height="19"/></clipPath></defs><title>Button</title><g class="b"><rect class="c" x="-531.09" y="-158.9" width="703.09" height="703.09" transform="translate(-188.81 -70.54) rotate(-45)"/></g><g class="d"><path class="e" d="M3,0A2.94,2.94,0,0,0,0,3V16a2.94,2.94,0,0,0,3,3H91a2.94,2.94,0,0,0,3-3V3a2.94,2.94,0,0,0-3-3Z"/></g><path class="f" d="M11.53,13.19V6H12.8v6H16v1.13Z"/><path class="f" d="M18.33,7.16V8.84h2.36V9.92H18.33v2.14h3.24v1.13H17.06V6h4.56V7.16Z"/><path class="f" d="M26.92,13.19l-.52-1.45H24l-.5,1.45H22l2.85-7.25h.56l2.87,7.25ZM25.17,8.12l-.86,2.64H26Z"/><path class="f" d="M33.11,13.19l-1.91-3-.8,0v3H29.08V6l.82,0c.48,0,.87,0,1.16,0,1.82,0,2.73.7,2.73,2.11a2,2,0,0,1-.38,1.16,2,2,0,0,1-.95.73l2.12,3.23Zm-2.71-6v2l.53,0a2.33,2.33,0,0,0,1.17-.22,1,1,0,0,0,.37-.88.75.75,0,0,0-.4-.73,2.77,2.77,0,0,0-1.24-.21Z"/><path class="f" d="M39.88,13.28,36.41,8.76v4.43H35.19V6h.61l3.38,4.32V6H40.4v7.25Z"/><path class="f" d="M51.55,13.19H50.31l-.74-3.86-1.44,3.95h-.45L46.24,9.33l-.77,3.86H44.24L45.68,6h.67l1.55,4.82L49.42,6h.67Z"/><path class="f" d="M52,9.55A4,4,0,0,1,52.82,7a2.73,2.73,0,0,1,2.24-1,2.94,2.94,0,0,1,2.36,1,4.06,4.06,0,0,1,.81,2.69,4.1,4.1,0,0,1-.85,2.74,3,3,0,0,1-2.42,1,2.63,2.63,0,0,1-2.21-1A4.45,4.45,0,0,1,52,9.55Zm1.32,0a3.62,3.62,0,0,0,.43,1.94,1.35,1.35,0,0,0,1.23.69,1.71,1.71,0,0,0,1.46-.67,3.28,3.28,0,0,0,.5-2Q56.92,7,55.06,7a1.45,1.45,0,0,0-1.3.69A3.18,3.18,0,0,0,53.3,9.55Z"/><path class="f" d="M63.39,13.19l-1.91-3-.8,0v3H59.36V6l.82,0c.48,0,.87,0,1.16,0,1.82,0,2.72.7,2.72,2.11a2,2,0,0,1-.37,1.16,2,2,0,0,1-.95.73l2.12,3.23Zm-2.71-6v2l.53,0a2.35,2.35,0,0,0,1.17-.22,1,1,0,0,0,.37-.88.76.76,0,0,0-.4-.73,2.77,2.77,0,0,0-1.24-.21Z"/><path class="f" d="M66.74,7.16V8.84H69.1V9.92H66.74v2.14H70v1.13H65.47V6H70V7.16Z"/><polygon class="f" points="78.82 14.28 77.41 12.86 80.77 9.5 77.41 6.14 78.82 4.72 83.59 9.5 78.82 14.28"/></svg>