<svg xmlns="http://www.w3.org/2000/svg" xmlns:xlink="http://www.w3.org/1999/xlink" viewBox="0 0 37.58 22.73"><defs><style>.a{fill:none;}.b{clip-path:url(#a);}.c{fill:#fff;}.d{clip-path:url(#b);}.e{fill:url(#c);}</style><clipPath id="a"><rect class="a" width="37.58" height="22.73"/></clipPath><clipPath id="b"><path class="a" d="M-623.68,208l0,1.17h36.32l-27.41-.1,0-1.07Zm-3.5-75,.58,12.58,0-1V133.06c1,.67,4,2.69,9.17,5.57a15.71,15.71,0,0,1,7.61-9.45c-5.07-2.08-10.41-4.26-16.13-6.55l-.12,0-.16-.07-.13,0-.18-.07-.09,0-.22-.09-.07,0-.24-.1ZM138.1,110.09c-71.06,2.07-155.24,22.5-211,34.08l-1,.2-.09,0-.94.19-.11,0-.94.2h-.09l-1,.2h0l-3,.62h0l-1,.2h0l-5.16,1h0l-1,.2h0q-8.26,1.64-16.57,3.18h0l-5.15.95h-.07l-1,.18h0l-1,.18h0l-2,.37h0l-1,.18h-.06l-1,.17-.1,0-1,.17-.08,0-1,.17h-.09l-.94.17h0l-1,.17-.12,0-.92.16-.15,0-.9.15-.16,0-.91.16-.13,0-.92.16-.09,0-.87.15-.17,0-.85.14-.24,0-.81.14-.27,0-.79.13-.29.05-.79.13-.23,0-.71.12-.31.06-.72.12-.29.05-.76.12-.35.06-.72.12-.36.06-.69.12-.39.06-.55.09-.5.09-.53.08-.53.09-.52.09-.44.07-.64.1-.45.08-.52.08-.58.09-.39.07-.72.11-.31.05-.85.14-.23,0-.93.15-.17,0-1.68.27-.08,0-1.06.16h-.06l-1.07.17h-.07c-64.14,10.09-128.49,16.12-188.55,17.45,23.29,2.08,47.9,3.35,74.1,3.57,51.54-4,103.63-10.23,149.45-18.16,112-19.36,200.56-40.8,260.44-40.8,41.13,0,68.71,10.11,81.05,38a54.41,54.41,0,0,1,4.48,16.67v10.2A52.72,52.72,0,0,1,225.52,208H201.89q-1,.63-2.07,1.17h68.26V169.87c-10.59-42.74-53.52-58.05-107.65-59.78Z"/></clipPath><linearGradient id="c" x1="-1073.7" y1="1386.53" x2="-1072.7" y2="1386.53" gradientTransform="matrix(668.02, 0, 0, 668.02, 716721.75, -926071.37)" gradientUnits="userSpaceOnUse"><stop offset="0" stop-color="#fff6f4"/><stop offset="0.63" stop-color="#f8a672"/><stop offset="1" stop-color="#f47522"/></linearGradient></defs><title>logo</title><g class="b"><path class="c" d="M15.27,0H4.64A4.33,4.33,0,0,0,0,4.59V16.24a.21.21,0,0,0,.2.19H3.35a.21.21,0,0,0,.2-.2h0V4.47a1,1,0,0,1,1.11-1H9.44A4.68,4.68,0,0,0,8.69,5.8v4.73c0,3.45,2.14,5.9,6.05,5.9h5.17a.22.22,0,0,0,.2-.21v-3a.19.19,0,0,0-.19-.19H15.63c-3.52,0-3.4-2.26-3.4-3.6V6.89c0-.71.31-3.47,3.08-3.47,3.18,0,3.09,2.42,3.09,3.47H14.72a.21.21,0,0,0-.19.19v2.4a.2.2,0,0,0,.19.19h7a.19.19,0,0,0,.18-.19V6.05C21.88,3.17,20.1,0,15.27,0M31.11,6.89H28.74A1.7,1.7,0,0,1,27,5.18c0-.94.63-1.71,2-1.71h5.79a.2.2,0,0,0,.2-.2V.17a.2.2,0,0,0-.2-.2h-6a5.17,5.17,0,0,0-5.13,5.21,4.56,4.56,0,0,0,4.85,4.49h2.24a1.69,1.69,0,0,1,1.81,1.69,1.71,1.71,0,0,1-1.78,1.71h-6a.21.21,0,0,0-.2.19v3a.22.22,0,0,0,.2.19h5.89a5.06,5.06,0,0,0,5.26-5.07,4.55,4.55,0,0,0-4.73-4.47"/><path class="c" d="M36.88.51a.39.39,0,0,0-.21,0h-.14V.82h.15l.16,0a.15.15,0,0,0,.1-.15c0-.07,0-.12-.06-.14M36.69.36a.79.79,0,0,1,.26,0,.23.23,0,0,1,.15.24A.21.21,0,0,1,37,.82a.38.38,0,0,1-.14.05A.24.24,0,0,1,37,1a.3.3,0,0,1,.05.15v.14s0,0,0,.05h-.16v-.1c0-.11,0-.19-.09-.22a.44.44,0,0,0-.19,0h-.13v.37h-.17V.36Zm-.51,0A.73.73,0,0,0,36,.84a.75.75,0,0,0,.22.53.75.75,0,0,0,1.06,0,.71.71,0,0,0,.22-.53.69.69,0,0,0-.22-.53.75.75,0,0,0-1.06,0m1.15,1.14a.82.82,0,0,1-.62.26.78.78,0,0,1-.61-.26.83.83,0,0,1-.26-.61A.85.85,0,0,1,36.1.22.82.82,0,0,1,36.71,0a.85.85,0,0,1,.87.87.82.82,0,0,1-.25.61"/></g><path class="c" d="M4.41,19.63a1.06,1.06,0,0,0-.27,0v1.41a1,1,0,0,0,.31.06c.42,0,.66-.31.66-.77a.66.66,0,0,0-.7-.73m.07,2a1.21,1.21,0,0,1-.34-.05v1.18h-.6V19.29a2.82,2.82,0,0,1,.92-.16,1.13,1.13,0,0,1,1.27,1.2A1.21,1.21,0,0,1,4.48,21.6"/><path class="c" d="M7.22,19.61c-.38,0-.56.32-.56.76s.21.77.58.77.56-.33.56-.77-.21-.76-.58-.76m.86,1.65a1.14,1.14,0,0,1-.85.34,1.19,1.19,0,0,1-.82-.29,1.38,1.38,0,0,1,0-1.84,1.24,1.24,0,0,1,1.71,0,1.38,1.38,0,0,1,0,1.79"/><polygon class="c" points="11.32 21.57 10.87 21.57 10.33 19.96 10.32 19.96 9.79 21.57 9.33 21.57 8.48 19.19 9.09 19.19 9.59 20.79 9.6 20.79 10.12 19.19 10.58 19.19 11.1 20.79 11.12 20.79 11.62 19.19 12.19 19.19 11.32 21.57"/><path class="c" d="M13.33,19.58a.49.49,0,0,0-.46.52h.92a.48.48,0,0,0-.46-.52m-.45,1a.62.62,0,0,0,.67.59,1.21,1.21,0,0,0,.61-.16l.15.38a1.49,1.49,0,0,1-.86.26,1.13,1.13,0,0,1-1.18-1.23,1.12,1.12,0,0,1,1.08-1.24,1.08,1.08,0,0,1,1.06,1.22v.18Z"/><path class="c" d="M16.16,19.74a.52.52,0,0,0-.27-.07.65.65,0,0,0-.46.21v1.67h-.6V19.19h.5l.07.25a.93.93,0,0,1,.65-.31.65.65,0,0,1,.34.1Z"/><path class="c" d="M19.14,18.56a.82.82,0,0,0-.3-.07c-.19,0-.28.12-.28.32v.38h.62l-.15.46h-.47v1.9H18v-1.9h-.35v-.46H18v-.33a.77.77,0,0,1,.83-.85,1.1,1.1,0,0,1,.47.11Z"/><path class="c" d="M20.48,19.61c-.38,0-.56.32-.56.76s.21.77.58.77.56-.33.56-.77-.21-.76-.58-.76m.86,1.65a1.14,1.14,0,0,1-.85.34,1.19,1.19,0,0,1-.82-.29,1.38,1.38,0,0,1,0-1.84,1.24,1.24,0,0,1,1.71,0,1.38,1.38,0,0,1,0,1.79"/><path class="c" d="M23.43,19.74a.52.52,0,0,0-.27-.07.65.65,0,0,0-.46.21v1.67h-.6V19.19h.5l.07.25a.93.93,0,0,1,.65-.31.65.65,0,0,1,.34.1Z"/><path class="c" d="M26,19.58a.38.38,0,0,0-.39.42.42.42,0,0,0,.42.46A.4.4,0,0,0,26.4,20a.44.44,0,0,0-.45-.44m-.41,2.05a.36.36,0,0,0-.2.31c0,.19.25.36.66.36s.6-.11.6-.29-.8-.27-1.06-.38m.41,1.1c-.71,0-1.13-.32-1.13-.7a.63.63,0,0,1,.44-.56.32.32,0,0,1-.16-.3.57.57,0,0,1,.3-.44A.8.8,0,0,1,25,20a.9.9,0,0,1,1-.89.93.93,0,0,1,.45.11s0,0,.06,0a.87.87,0,0,1,.74-.18l-.12.44a.65.65,0,0,0-.34,0,.82.82,0,0,1,.23.6.89.89,0,0,1-1,.85.8.8,0,0,1-.32-.05.35.35,0,0,0-.06.19c0,.36,1.61,0,1.61.89,0,.4-.41.78-1.3.78"/><path class="c" d="M28.54,19.61c-.38,0-.57.32-.57.76s.22.77.58.77.57-.33.57-.77-.21-.76-.58-.76m.86,1.65a1.27,1.27,0,0,1-1.67,0,1.23,1.23,0,0,1-.36-.93,1.26,1.26,0,0,1,.34-.91,1.15,1.15,0,0,1,.84-.34,1.21,1.21,0,0,1,.87.34,1.41,1.41,0,0,1,0,1.79"/><path class="c" d="M31.23,19.61c-.38,0-.57.32-.57.76s.22.77.58.77.57-.33.57-.77-.21-.76-.58-.76m.86,1.65a1.27,1.27,0,0,1-1.67,0,1.23,1.23,0,0,1-.37-.93,1.27,1.27,0,0,1,.35-.91,1.15,1.15,0,0,1,.84-.34,1.21,1.21,0,0,1,.87.34,1.41,1.41,0,0,1,0,1.79"/><path class="c" d="M34.35,19.64a1,1,0,0,0-.28,0,.69.69,0,0,0-.73.75.71.71,0,0,0,.74.75,1.1,1.1,0,0,0,.27,0Zm-.33,2a1.17,1.17,0,0,1-1.28-1.21,1.23,1.23,0,0,1,1.31-1.26l.3,0V18H35v3.4a2,2,0,0,1-.93.19"/><path class="c" d="M36.88,18.47a.55.55,0,0,0-.21,0h-.14v.34h.15a.37.37,0,0,0,.16,0,.14.14,0,0,0,.1-.15.16.16,0,0,0-.06-.14m-.19-.15a.56.56,0,0,1,.26,0,.23.23,0,0,1,.15.24.22.22,0,0,1-.09.19.39.39,0,0,1-.14,0,.29.29,0,0,1,.17.1.3.3,0,0,1,.05.14v.15a.07.07,0,0,0,0,.05h-.16v-.11a.24.24,0,0,0-.09-.22.44.44,0,0,0-.19,0h-.13v.38h-.17v-1Zm-.51-.05a.76.76,0,0,0,0,1.07.75.75,0,0,0,1.06,0,.76.76,0,0,0,0-1.07.75.75,0,0,0-1.06,0m1.15,1.15a.85.85,0,0,1-.62.26.82.82,0,0,1-.61-.26.85.85,0,0,1-.26-.62.83.83,0,0,1,.26-.61.82.82,0,0,1,.61-.25.84.84,0,0,1,.62.25.82.82,0,0,1,.25.61.84.84,0,0,1-.25.62"/><g class="d"><rect class="e" x="-531.09" y="-191.93" width="703.09" height="703.09" transform="translate(-165.45 -80.21) rotate(-45)"/></g></svg>