<svg xmlns="http://www.w3.org/2000/svg" xmlns:xlink="http://www.w3.org/1999/xlink" viewBox="0 0 104.19 9.02"><defs><style>.a{fill:none;}.b{clip-path:url(#a);}.c{fill:url(#b);}.d{fill:#fff;}</style><clipPath id="a"><path class="a" d="M-623.68,173l0,1.17h36.32l-27.41-.1,0-1.07Zm-3.5-75,.58,12.57,0-1V98.1c1,.66,4,2.68,9.17,5.57a15.73,15.73,0,0,1,7.61-9.46c-5.07-2.08-10.41-4.26-16.13-6.54l-.12,0-.16-.06-.13,0-.18-.08-.09,0-.22-.09-.07,0-.24-.09ZM138.1,75.12C67,77.19-17.14,97.63-72.93,109.2l-1,.2-.1,0-.94.19-.1,0-.94.19-.09,0-1,.2h0l-3,.62h0l-1,.21h0l-5.16,1h0l-1,.2h0q-8.26,1.62-16.57,3.17h0l-5.15,1-.07,0-1,.18h0l-1,.18h0l-2,.37h0l-1,.18h-.06l-1,.18-.1,0-1,.17h-.08l-1,.17-.09,0-.94.16h0l-1,.17-.12,0-.92.16-.15,0-.9.16-.16,0-.91.16-.13,0-.92.16-.09,0-.87.15-.17,0-.85.14-.24,0-.81.13-.27,0-.79.13-.29,0-.79.14-.23,0-.71.12-.31,0-.72.12-.3,0-.75.13-.35.06-.72.12-.36.06-.69.11-.39.06-.55.1-.5.08-.53.09-.53.08-.52.09-.44.07-.64.11-.45.07-.52.08-.58.1-.39.06-.72.12-.31,0-.85.13-.23,0-.93.15-.17,0-1.68.26-.08,0-1.06.17h-.06l-1.07.16-.07,0c-64.14,10.08-128.49,16.11-188.55,17.44,23.29,2.08,47.9,3.36,74.1,3.57,51.54-4,103.63-10.23,149.45-18.15,112-19.37,200.56-40.81,260.44-40.81,41.13,0,68.71,10.12,81.05,38a54.33,54.33,0,0,1,4.48,16.67v10.19A52.66,52.66,0,0,1,225.52,173H201.89q-1,.63-2.07,1.17h68.26V134.91c-10.59-42.75-53.52-58-107.65-59.79Z"/></clipPath><linearGradient id="b" x1="-1073.7" y1="1351.57" x2="-1072.7" y2="1351.57" gradientTransform="matrix(668.02, 0, 0, 668.02, 716721.86, -902748.27)" gradientUnits="userSpaceOnUse"><stop offset="0" stop-color="#fff6f4"/><stop offset="0.63" stop-color="#f8a672"/><stop offset="1" stop-color="#f47522"/></linearGradient></defs><title>slogon</title><g class="b"><rect class="c" x="-531.09" y="-226.9" width="703.09" height="703.09" transform="translate(-140.73 -90.45) rotate(-45)"/></g><path class="d" d="M5.2,6.94H4.78L3.53,3.33,2.32,6.94H1.9L0,1.14H1.08L2.15,4.59,3.31,1.14h.45L4.92,4.59,6,1.14H7.05Z"/><path class="d" d="M11,6.86V4.28H8.67V6.86h-1V1.14h1V3.38H11V1.14h1V6.86Z"/><path class="d" d="M13.14,6.86V1.14h1V6.86Z"/><path class="d" d="M17.68,2V6.86h-1V2H14.84v-.9h4.74V2Z"/><path class="d" d="M21.26,2V3.38h1.89v.86H21.26V6h2.6v.9H20.25V1.14H23.9V2Z"/><path class="d" d="M28.22,4.76v2.1h-1V1.14l1.18,0a3.77,3.77,0,0,1,2,.41A1.46,1.46,0,0,1,31,2.81c0,1.32-.77,2-2.32,2Zm0-2.74V3.85l.41,0a1.77,1.77,0,0,0,1-.23A.87.87,0,0,0,30,2.89C30,2.3,29.49,2,28.53,2Z"/><path class="d" d="M31.63,4a3.22,3.22,0,0,1,.67-2.07A2.17,2.17,0,0,1,34.09,1,2.36,2.36,0,0,1,36,1.8,3.25,3.25,0,0,1,36.63,4,3.36,3.36,0,0,1,36,6.15,2.4,2.4,0,0,1,34,7a2.09,2.09,0,0,1-1.77-.81A3.53,3.53,0,0,1,31.63,4Zm1.05,0A3.06,3.06,0,0,0,33,5.51a1.12,1.12,0,0,0,1,.55,1.34,1.34,0,0,0,1.16-.54A2.6,2.6,0,0,0,35.57,4c0-1.34-.49-2-1.48-2a1.18,1.18,0,0,0-1,.54A2.58,2.58,0,0,0,32.68,4Z"/><path class="d" d="M37.25,6.54l.38-.91a2,2,0,0,0,1.18.43q.9,0,.9-.63a.91.91,0,0,0-.21-.56,2.81,2.81,0,0,0-.87-.59,3.78,3.78,0,0,1-.89-.55,1.46,1.46,0,0,1-.35-.5,1.71,1.71,0,0,1-.12-.65,1.43,1.43,0,0,1,.48-1.1A1.82,1.82,0,0,1,39,1a2.32,2.32,0,0,1,1.46.37l-.31.88A1.89,1.89,0,0,0,39,1.9a.75.75,0,0,0-.55.19.66.66,0,0,0-.19.48c0,.33.36.67,1.09,1a4,4,0,0,1,.83.52,1.63,1.63,0,0,1,.39.55,2,2,0,0,1,.13.7,1.41,1.41,0,0,1-.55,1.15A2.26,2.26,0,0,1,38.7,7,2.62,2.62,0,0,1,37.25,6.54Z"/><path class="d" d="M44,2V6.86h-1V2H41.11v-.9h4.74V2Z"/><path class="d" d="M53.39,6.94H53L51.72,3.33,50.51,6.94h-.42l-1.88-5.8h1.06l1.07,3.45L51.5,1.14H52l1.16,3.45,1.07-3.45h1.06Z"/><path class="d" d="M55.87,6.86V1.14h1V6.86Z"/><path class="d" d="M61.83,6.94,59.05,3.32V6.86h-1V1.14h.49l2.71,3.45V1.14h1v5.8Z"/><path class="d" d="M64.68,6.86H63.41V1.14l1.53,0a2.64,2.64,0,0,1,2,.73,2.63,2.63,0,0,1,.74,1.94Q67.66,6.86,64.68,6.86ZM64.43,2v3.9A4.33,4.33,0,0,0,65,6a1.46,1.46,0,0,0,1.21-.56,2.47,2.47,0,0,0,.43-1.56C66.6,2.61,66,2,64.89,2Z"/><path class="d" d="M72,4.76v2.1H71V1.14l1.19,0a3.7,3.7,0,0,1,2,.41,1.45,1.45,0,0,1,.63,1.3c0,1.32-.77,2-2.32,2ZM72,2V3.85l.41,0a1.77,1.77,0,0,0,1-.23.87.87,0,0,0,.32-.76c0-.59-.47-.89-1.43-.89Z"/><path class="d" d="M78.89,6.86,77.36,4.5l-.65,0V6.86h-1V1.14l.66,0,.93,0c1.45,0,2.18.56,2.18,1.69a1.48,1.48,0,0,1-.31.92,1.59,1.59,0,0,1-.75.59l1.69,2.58ZM76.71,2V3.61a3.91,3.91,0,0,0,.43,0,1.88,1.88,0,0,0,.94-.18.76.76,0,0,0,.29-.69.59.59,0,0,0-.32-.59,2.09,2.09,0,0,0-1-.17Z"/><path class="d" d="M80.27,4a3.27,3.27,0,0,1,.67-2.07A2.19,2.19,0,0,1,82.73,1a2.33,2.33,0,0,1,1.89.76A3.19,3.19,0,0,1,85.27,4a3.31,3.31,0,0,1-.68,2.2A2.38,2.38,0,0,1,82.66,7a2.09,2.09,0,0,1-1.77-.81A3.53,3.53,0,0,1,80.27,4Zm1.06,0a3,3,0,0,0,.34,1.56,1.09,1.09,0,0,0,1,.55,1.37,1.37,0,0,0,1.16-.54A2.6,2.6,0,0,0,84.22,4c0-1.34-.5-2-1.49-2a1.18,1.18,0,0,0-1,.54A2.67,2.67,0,0,0,81.33,4Z"/><path class="d" d="M85.65,5.54h.91c.08.33.36.5.83.5a.77.77,0,0,0,.71-.33,1.82,1.82,0,0,0,.2-1V1.14h1V4.7a2.53,2.53,0,0,1-.48,1.69,2,2,0,0,1-1.56.55,1.76,1.76,0,0,1-1.15-.37A1.42,1.42,0,0,1,85.65,5.54Z"/><path class="d" d="M91.45,2V3.38h1.89v.86H91.45V6H94v.9H90.43V1.14h3.66V2Z"/><path class="d" d="M98.91,1.44l-.42.84a1.54,1.54,0,0,0-1.1-.34,1.42,1.42,0,0,0-1.17.6,2.47,2.47,0,0,0-.45,1.52,2.32,2.32,0,0,0,.42,1.46,1.36,1.36,0,0,0,1.13.54,1.55,1.55,0,0,0,1.27-.58l.47.82A2.39,2.39,0,0,1,97.24,7a2.28,2.28,0,0,1-1.86-.79A3.2,3.2,0,0,1,94.71,4a3.16,3.16,0,0,1,.74-2.13A2.37,2.37,0,0,1,97.33,1,2.76,2.76,0,0,1,98.91,1.44Z"/><path class="d" d="M102.21,2V6.86h-1V2H99.37v-.9h4.74V2Z"/></svg>