<svg xmlns="http://www.w3.org/2000/svg" xmlns:xlink="http://www.w3.org/1999/xlink" viewBox="0 0 10.32 107.85"><defs><style>.a{fill:none;}.b{fill:#838c94;}.c{clip-path:url(#a);}.d{fill:url(#b);}</style><clipPath id="a"><path class="a" d="M-643.68-32.65l0,1.17h36.32l-27.4-.09,0-1.08Zm-3.5-75,.59,12.57,0-1v-11.53c1,.66,4,2.68,9.17,5.57a15.75,15.75,0,0,1,7.61-9.45c-5.07-2.09-10.41-4.26-16.13-6.55l-.12,0-.16-.06-.13,0-.18-.07-.09,0-.22-.09-.07,0-.24-.09ZM118.1-130.53C47-128.46-37.14-108-92.93-96.45l-1,.2-.09,0-.94.2L-95-96l-.94.19-.09,0-1,.2h0l-3,.62h0l-1,.21h0l-5.16,1h0l-1,.21h0q-8.28,1.63-16.58,3.18h0l-5.16,1h-.07l-1,.18h0l-1,.18h0l-2,.37h0l-1,.18h-.06l-1,.17-.1,0-1,.17h-.08l-1,.18h-.08l-.95.17h-.05l-.95.16-.12,0-.92.17-.15,0-.9.16-.16,0-.91.15-.13,0-.92.16h-.09l-.87.15-.17,0-.85.15-.24,0-.81.14-.27,0-.79.14-.29,0-.79.13-.23,0-.71.12-.31.05-.72.12-.29,0-.76.13-.35.06-.72.12-.36.06-.69.11-.38.07-.56.09-.5.08-.53.09-.53.09-.52.08-.43.07-.65.11-.45.07-.52.09-.58.09-.39.06-.72.12-.31,0-.84.14-.24,0-.93.15-.17,0-1.67.27H-165l-1.06.17h-.06l-1.07.17h-.07C-231.41-72.83-295.75-66.8-355.82-65.47c23.29,2.09,47.9,3.36,74.1,3.58,51.55-4,103.63-10.24,149.45-18.16,112-19.36,200.56-40.8,260.44-40.81,41.13,0,68.71,10.12,81.05,38a54.33,54.33,0,0,1,4.48,16.67V-56a52.66,52.66,0,0,1-8.18,23.37H181.89a23.39,23.39,0,0,1-2.07,1.17h68.26V-70.74c-10.59-42.74-53.52-58-107.65-59.79Z"/></clipPath><linearGradient id="b" x1="-1093.7" y1="1145.92" x2="-1092.7" y2="1145.92" gradientTransform="matrix(668.02, 0, 0, 668.02, 730061.91, -765577.48)" gradientUnits="userSpaceOnUse"><stop offset="0" stop-color="#fff6f4"/><stop offset="0.63" stop-color="#f8a672"/><stop offset="1" stop-color="#f47522"/></linearGradient></defs><title>stem</title><path class="b" d="M2.77,107.57c1,.53,2.76.18,3.89.05s2-.27,3-.41c-.06-.48,0-1-.07-1.43q-.3-9-.57-18Q8.49,71.85,8,56c-.35-11.43-.67-22.87-1-34.31-.13-4.06-1.21-12.8.31-12.72.79.05,3.36-2.14,3-4-.17-.9-.9-1.3-1.55-1.78L5.32.56h0a2.54,2.54,0,0,0-4.13,2c0,1.51.17,2.91.19,3.27,0,1.1.09,2.19.11,3.29.07,4.42-.32,8.84-.27,13.27.05,3.74-.13,7.48-.18,11.23Q.73,55,.41,76.38.2,91,0,105.67V107A4.93,4.93,0,0,1,2.77,107.57Z"/><g class="c"><rect class="d" x="-551.09" y="-432.54" width="703.09" height="703.09" transform="translate(-1.17 -164.83) rotate(-45)"/></g></svg>